<svg xmlns="http://www.w3.org/2000/svg" data-name="Layer 1" viewBox="0 0 98 98" id="id"><g data-name="<Group>"><g data-name="<Group>"><path fill="#d4e1f4" d="M38.2 40.7a5.2 5.2 0 0 1 1.6 3.7 5.3 5.3 0 0 1-1.6 3.8 5.6 5.6 0 0 1-3.7 1.5 5.3 5.3 0 0 1-5.3-5.3 5.6 5.6 0 0 1 1.5-3.7 5.6 5.6 0 0 1 3.8-1.5A5.6 5.6 0 0 1 38.2 40.7zM44.7 63.7v1.1H24.2V63.7A8.7 8.7 0 0 1 33 54.9h2.9A8.7 8.7 0 0 1 44.7 63.7z" data-name="<Group>"></path><path fill="#00acea" d="M46.6,64.8H44.7V63.7a8.7,8.7,0,0,0-8.8-8.8H33a8.7,8.7,0,0,0-8.8,8.8v1.1H22a4,4,0,0,1-4-4V37.2a4,4,0,0,1,4-4H46.6a4,4,0,0,1,4,4V60.8A4,4,0,0,1,46.6,64.8ZM39.8,44.4a5.2,5.2,0,0,0-1.6-3.7,5.6,5.6,0,0,0-3.7-1.5,5.6,5.6,0,0,0-3.8,1.5,5.6,5.6,0,0,0-1.5,3.7,5.3,5.3,0,0,0,5.3,5.3,5.6,5.6,0,0,0,3.7-1.5A5.3,5.3,0,0,0,39.8,44.4Z" data-name="<Group>"></path><path fill="#00efd1" d="M87.9,29.8V68.2a6,6,0,0,1-6,6H16.1a6,6,0,0,1-6-6V29.8a6,6,0,0,1,6-6H81.9A6,6,0,0,1,87.9,29.8Zm-37.3,31V37.2a4,4,0,0,0-4-4H22a4,4,0,0,0-4,4V60.8a4,4,0,0,0,4,4H46.6A4,4,0,0,0,50.6,60.8Z" data-name="<Group>"></path></g><g data-name="<Group>"><g data-name="<Group>"><path fill="#224099" d="M81.9,76.2H16.1a8,8,0,0,1-8-8V29.8a8,8,0,0,1,8-8H81.9a8,8,0,0,1,8,8V68.2A8,8,0,0,1,81.9,76.2ZM16.1,25.8a3.9,3.9,0,0,0-4,4V68.2a3.9,3.9,0,0,0,4,4H81.9a3.9,3.9,0,0,0,4-4V29.8a3.9,3.9,0,0,0-4-4Z" data-name="<Compound Path>"></path></g><g data-name="<Group>"><path fill="#224099" d="M80,55.9H57.5a2,2,0,0,1,0-4H80a2,2,0,0,1,0,4Z" data-name="<Path>"></path></g><g data-name="<Group>"><path fill="#224099" d="M70,46.1H57.5a2,2,0,0,1,0-4H70a2,2,0,0,1,0,4Z" data-name="<Path>"></path></g><path fill="#224099" d="M53,37a6,6,0,0,0-6-6H22a6,6,0,0,0-6,6V61a6,6,0,0,0,6,6H47a6,6,0,0,0,6-6ZM26.3,63c.4-4,3.2-6,6.7-6h2.9c3.5,0,6.3,2,6.7,6ZM49,60.8a2.2,2.2,0,0,1-2.1,2,11,11,0,0,0-11-9.8H33A10.6,10.6,0,0,0,22.2,63H22a2.2,2.2,0,0,1-2-2.2V37.2A2.2,2.2,0,0,1,22,35H46.6A2.6,2.6,0,0,1,49,37.2Z" data-name="<Compound Path>"></path><g data-name="<Group>"><path fill="#224099" d="M34.5,51.7a7.3,7.3,0,0,1-7.3-7.3,7.3,7.3,0,0,1,12.4-5.1,7.1,7.1,0,0,1,0,10.3A7.1,7.1,0,0,1,34.5,51.7Zm0-10.5a3.2,3.2,0,0,0-2.3.9,3,3,0,0,0-1,2.3,3.3,3.3,0,0,0,5.6,2.4,3.7,3.7,0,0,0,1-2.4,3.4,3.4,0,0,0-1-2.3A3.3,3.3,0,0,0,34.5,41.2Z" data-name="<Compound Path>"></path></g></g></g></svg>